<?xml version="1.0" standalone="no"?>
<!DOCTYPE svg PUBLIC "-//W3C//DTD SVG 20010904//EN"
 "http://www.w3.org/TR/2001/REC-SVG-20010904/DTD/svg10.dtd">
<svg version="1.0" xmlns="http://www.w3.org/2000/svg"
 width="1024.000000pt" height="1024.000000pt" viewBox="0 0 1024.000000 1024.000000"
 preserveAspectRatio="xMidYMid meet">

<g transform="translate(0.000000,1024.000000) scale(0.100000,-0.100000)"
fill="#000000" stroke="none">
<path d="M8389 9123 c-13 -16 -12 -17 4 -4 9 7 17 15 17 17 0 8 -8 3 -21 -13z"/>
<path d="M8580 8900 c0 -5 5 -10 10 -10 6 0 10 5 10 10 0 6 -4 10 -10 10 -5 0
-10 -4 -10 -10z"/>
<path d="M8370 8830 c-9 -6 -10 -10 -3 -10 6 0 15 5 18 10 8 12 4 12 -15 0z"/>
<path d="M8415 8770 c-16 -7 -17 -9 -3 -9 9 -1 20 4 23 9 7 11 7 11 -20 0z"/>
<path d="M8453 8730 c-35 -22 -63 -42 -63 -44 0 -3 29 13 65 35 56 35 74 49
63 49 -2 0 -31 -18 -65 -40z"/>
<path d="M8330 8700 c-9 -6 -10 -10 -3 -10 6 0 15 5 18 10 8 12 4 12 -15 0z"/>
<path d="M8654 8664 c-18 -14 -18 -15 4 -4 12 6 22 13 22 15 0 8 -5 6 -26 -11z"/>
<path d="M8479 8643 c-13 -16 -12 -17 4 -4 9 7 17 15 17 17 0 8 -8 3 -21 -13z"/>
<path d="M8294 8554 c-18 -14 -18 -14 6 -3 31 14 36 19 24 19 -6 0 -19 -7 -30
-16z"/>
<path d="M8741 8557 c-6 -8 -7 -18 -3 -23 4 -4 0 -3 -10 4 -13 11 -34 8 -117
-13 -56 -14 -145 -41 -199 -61 -53 -19 -151 -51 -216 -70 -110 -32 -261 -98
-376 -164 -58 -33 -313 -150 -410 -188 -119 -47 -265 -95 -565 -186 -314 -96
-433 -137 -650 -224 -298 -120 -586 -258 -775 -372 -25 -15 -96 -56 -158 -91
-150 -85 -138 -78 -219 -128 -40 -25 -70 -48 -68 -51 2 -4 -2 -7 -9 -7 -16 0
-123 -72 -160 -109 -16 -16 -26 -23 -21 -15 4 7 -6 3 -23 -9 -17 -13 -28 -28
-25 -33 3 -6 2 -7 -4 -4 -23 14 -277 -207 -553 -483 -96 -96 -217 -212 -267
-258 -108 -97 -173 -177 -213 -264 -42 -94 -46 -120 -8 -58 52 84 95 140 102
133 3 -4 0 -13 -7 -22 -8 -9 -17 -25 -21 -36 -4 -13 2 -10 16 10 100 131 242
264 401 373 106 73 216 137 223 129 3 -2 -17 -21 -44 -40 -60 -45 -241 -231
-302 -312 -25 -33 -81 -113 -123 -177 -43 -65 -111 -155 -153 -200 -92 -101
-176 -225 -215 -317 -16 -38 -45 -129 -64 -202 -20 -74 -45 -159 -56 -189 -39
-105 -128 -249 -208 -335 l-46 -50 44 40 c61 56 240 260 304 347 70 94 90 135
134 270 42 130 95 215 168 271 69 53 352 190 459 223 88 27 89 27 123 8 42
-22 72 -21 217 12 135 30 236 64 496 169 355 143 377 148 745 150 265 1 297 3
368 23 170 47 249 101 390 267 116 136 192 201 502 432 239 178 462 301 757
417 92 36 172 66 178 66 34 0 402 179 394 192 -3 4 2 5 10 2 9 -4 18 1 22 10
3 9 9 14 13 11 4 -2 8 2 8 10 0 8 -6 15 -14 15 -7 0 -13 -4 -13 -10 0 -5 -6
-7 -14 -4 -7 3 -42 -5 -77 -17 -69 -23 -129 -39 -129 -33 0 1 21 12 47 24 25
11 44 22 41 25 -5 5 -165 -49 -175 -59 -4 -3 -13 -6 -22 -6 -23 1 9 24 89 65
36 18 74 43 85 56 11 13 13 18 5 12 -26 -23 -34 -13 -10 12 15 16 19 25 10 25
-9 0 -8 6 5 20 25 27 11 25 -28 -4 -55 -40 -197 -127 -197 -119 0 5 22 23 48
42 156 114 182 138 182 169 0 9 -15 3 -42 -16 -125 -85 -183 -121 -186 -114
-1 5 7 29 18 55 12 26 19 48 18 50 -2 2 3 11 11 20 20 25 5 21 -42 -11 -83
-57 -81 -47 5 20 36 27 49 64 19 53 -9 -4 -47 -17 -86 -30 -38 -12 -78 -26
-88 -30 -30 -13 -10 18 29 43 19 12 32 27 29 33 -4 5 -2 8 3 7 5 -2 40 19 77
46 38 26 104 66 148 87 43 21 84 43 91 48 7 6 15 9 18 6 13 -13 189 71 237
113 53 46 20 48 -56 4 -38 -22 -111 -61 -163 -88 -52 -27 -97 -51 -100 -54 -3
-3 -17 -6 -31 -7 -27 -1 -76 -24 -199 -91 -56 -30 -98 -45 -165 -56 -49 -9
-99 -16 -109 -16 -41 0 2 19 98 45 128 34 182 55 165 66 -7 4 -20 4 -28 0 -9
-5 -38 -12 -66 -16 -27 -3 -79 -21 -115 -40 -116 -59 -125 -63 -160 -74 l-35
-11 25 20 c14 11 39 25 55 31 40 16 305 137 327 149 10 6 24 10 32 10 8 0 18
5 21 10 8 13 -44 2 -62 -12 -7 -6 -19 -8 -28 -5 -8 4 -17 2 -20 -3 -3 -5 -13
-6 -22 -3 -12 5 -14 3 -8 -7 5 -8 4 -11 -3 -6 -14 9 -63 -14 -55 -27 3 -6 1
-7 -5 -3 -6 4 -21 2 -33 -4 -11 -7 -23 -9 -26 -7 -7 8 76 59 122 74 61 21 95
37 95 45 0 4 -14 2 -32 -3 -57 -16 -43 0 28 32 38 17 101 46 139 65 79 38 95
42 73 17 -36 -43 -27 -44 10 -2 53 59 180 123 300 151 121 28 298 91 295 106
-2 7 1 12 5 12 5 0 17 7 28 15 10 8 -6 4 -37 -9 -80 -35 -116 -43 -276 -61
-78 -8 -175 -24 -215 -35 -130 -34 -126 -34 -83 -6 22 14 66 33 99 43 32 9 61
23 63 30 3 7 9 13 15 13 5 0 6 -5 3 -11 -6 -9 21 0 88 31 15 7 27 18 27 23 0
5 -8 3 -17 -4 -9 -8 -14 -9 -10 -2 10 16 -26 26 -66 18 -40 -9 -108 -39 -162
-72 -36 -23 -34 -20 19 30 33 31 90 72 128 90 37 19 64 38 60 42 -4 5 -1 5 5
1 14 -8 145 36 183 62 25 17 38 42 21 42 -5 0 -14 -6 -20 -13z m-181 -191 c0
-2 -7 -7 -16 -10 -8 -3 -12 -2 -9 4 6 10 25 14 25 6z m-375 -534 c-6 -4 -22
-18 -36 -30 -20 -17 -29 -20 -34 -11 -5 7 -4 10 2 6 6 -4 21 5 33 18 13 14 28
25 34 25 6 0 6 -3 1 -8z m142 -217 c0 -8 -4 -12 -9 -9 -5 3 -6 10 -3 15 9 13
12 11 12 -6z m-37 -20 c0 -2 -10 -9 -22 -15 -22 -11 -22 -10 -4 4 21 17 26 19
26 11z"/>
<path d="M8306 8494 c-5 -14 -4 -15 9 -4 17 14 19 20 6 20 -5 0 -12 -7 -15
-16z"/>
<path d="M8263 8478 c-10 -13 -25 -24 -33 -26 -8 -2 -22 -10 -30 -18 -13 -13
-11 -13 18 -3 19 6 36 17 39 25 2 7 11 10 18 8 9 -4 13 1 12 15 -2 26 -1 26
-24 -1z"/>
<path d="M8605 8390 c-11 -4 -24 -5 -29 -2 -5 3 -6 0 -2 -7 5 -7 11 -10 14 -7
3 3 10 2 16 -3 7 -6 20 -3 34 8 20 14 20 17 5 18 -10 0 -27 -3 -38 -7z"/>
<path d="M7413 8209 c-23 -11 -48 -28 -55 -37 -9 -11 -3 -9 17 5 17 12 46 28
65 36 19 9 31 16 25 16 -5 1 -29 -8 -52 -20z"/>
<path d="M8370 8090 c-9 -6 -10 -10 -3 -10 6 0 15 5 18 10 8 12 4 12 -15 0z"/>
<path d="M5450 8065 c-14 -8 -20 -14 -15 -14 6 0 21 6 35 14 14 8 21 14 15 14
-5 0 -21 -6 -35 -14z"/>
<path d="M9043 8063 c-13 -2 -23 -9 -23 -14 0 -6 -4 -7 -10 -4 -12 7 -80 -23
-80 -36 0 -5 -3 -8 -7 -8 -28 4 -83 -24 -71 -36 5 -6 218 91 218 100 0 3 -1 4
-2 4 -2 -1 -13 -4 -25 -6z"/>
<path d="M8493 8043 c3 -5 -34 -29 -84 -53 -49 -23 -87 -45 -84 -48 5 -5 161
72 178 88 5 4 3 11 -4 15 -7 5 -10 4 -6 -2z"/>
<path d="M8190 8020 c-8 -5 -12 -12 -9 -15 4 -3 12 1 19 10 14 17 11 19 -10 5z"/>
<path d="M6495 7995 c-25 -12 -26 -14 -5 -9 28 7 60 23 45 23 -5 0 -23 -6 -40
-14z"/>
<path d="M8116 7975 c-11 -8 -16 -15 -10 -15 5 0 18 7 28 15 11 8 16 15 10 15
-5 0 -18 -7 -28 -15z"/>
<path d="M8500 7940 c-8 -5 -10 -10 -5 -10 6 0 17 5 25 10 8 5 11 10 5 10 -5
0 -17 -5 -25 -10z"/>
<path d="M8450 7915 c-14 -8 -20 -14 -14 -15 5 0 19 7 30 15 24 18 16 19 -16
0z"/>
<path d="M8384 7884 c-18 -14 -18 -15 4 -4 12 6 22 13 22 15 0 8 -5 6 -26 -11z"/>
<path d="M8327 7845 c-7 -5 -23 -25 -36 -44 -21 -28 -21 -32 -5 -22 23 13 75
56 55 45 -9 -5 -12 -3 -7 5 4 6 11 9 16 6 5 -3 21 0 36 8 l26 14 -36 -1 c-19
-1 -41 -5 -49 -11z"/>
<path d="M8269 7673 c-13 -16 -12 -17 4 -4 9 7 17 15 17 17 0 8 -8 3 -21 -13z"/>
<path d="M8229 7643 c-13 -16 -12 -17 4 -4 9 7 17 15 17 17 0 8 -8 3 -21 -13z"/>
<path d="M8558 7643 c-18 -23 1 -28 23 -7 16 17 17 21 4 21 -8 0 -20 -6 -27
-14z"/>
<path d="M8527 7623 c-4 -3 -1 -13 6 -22 11 -14 10 -14 -6 -2 -18 14 -32 9
-32 -12 -1 -7 -6 -11 -12 -10 -5 1 -23 -12 -39 -30 l-29 -32 33 29 c30 28 39
26 33 -7 -1 -5 3 -5 9 -2 6 4 9 14 6 22 -3 8 -1 11 4 8 5 -3 21 5 35 18 22 20
24 26 12 35 -8 7 -17 9 -20 5z"/>
<path d="M8445 7510 c-16 -17 -16 -20 -3 -15 9 4 19 13 22 21 7 19 2 18 -19
-6z"/>
<path d="M8390 7455 c-8 -9 -8 -15 -2 -15 12 0 26 19 19 26 -2 2 -10 -2 -17
-11z"/>
<path d="M8511 7327 c-42 -49 -43 -50 -7 -17 32 29 64 71 54 70 -2 -1 -23 -24
-47 -53z"/>
<path d="M8187 7216 c-4 -10 -1 -13 9 -9 7 3 14 9 14 14 0 14 -17 10 -23 -5z"/>
<path d="M8475 7205 c-115 -22 -203 -52 -325 -109 -63 -30 -162 -71 -220 -90
-58 -19 -136 -52 -175 -72 -72 -38 -249 -167 -275 -200 -10 -13 -4 -11 20 7
52 38 87 55 234 109 72 27 228 98 346 159 230 117 334 162 445 191 81 22 52
24 -50 5z"/>
<path d="M7600 6959 c-278 -145 -369 -197 -305 -173 86 32 425 216 425 230 0
6 8 9 -120 -57z"/>
<path d="M8640 6950 c-51 -5 -46 -6 64 -18 77 -8 123 -9 129 -3 16 16 -104 30
-193 21z"/>
<path d="M7179 6463 c-13 -16 -12 -17 4 -4 9 7 17 15 17 17 0 8 -8 3 -21 -13z"/>
<path d="M7924 6308 l-29 -33 33 29 c30 28 37 36 29 36 -2 0 -16 -15 -33 -32z"/>
<path d="M8528 6309 c-120 -63 -383 -85 -607 -50 -74 12 -158 21 -187 21 -166
0 -463 -100 -699 -235 -141 -81 -385 -166 -540 -189 -54 -8 -23 6 78 35 42 12
76 24 74 26 -2 2 -64 -6 -138 -17 -103 -16 -215 -23 -484 -30 -373 -10 -480
-21 -645 -66 -107 -30 -144 -50 -54 -29 152 34 365 42 439 15 19 -7 19 -7 0
-17 -11 -6 -47 -16 -80 -23 -33 -7 -119 -30 -191 -51 -153 -44 -251 -62 -468
-84 -87 -9 -216 -25 -285 -35 -129 -20 -289 -53 -216 -45 307 34 441 46 605
55 469 28 451 26 510 53 73 35 187 47 375 40 115 -4 173 -2 248 11 156 27 411
91 557 141 74 25 176 57 225 71 127 36 258 87 420 162 167 77 288 120 358 127
29 3 142 7 252 9 170 3 211 6 274 25 76 22 221 85 221 95 0 8 1 8 -42 -15z"/>
<path d="M8319 5803 c-13 -16 -12 -17 4 -4 9 7 17 15 17 17 0 8 -8 3 -21 -13z"/>
<path d="M8051 5780 c-13 -11 -19 -20 -14 -20 6 0 18 9 28 20 23 25 17 25 -14
0z"/>
<path d="M8250 5768 c-57 -34 -102 -70 -96 -76 6 -5 146 85 146 94 0 8 -16 2
-50 -18z"/>
<path d="M1562 5700 c0 -14 2 -19 5 -12 2 6 2 18 0 25 -3 6 -5 1 -5 -13z"/>
<path d="M1558 5616 c-3 -15 -1 -23 6 -20 13 5 19 44 7 44 -5 0 -11 -11 -13
-24z"/>
<path d="M7986 5525 c1 -49 2 -98 3 -107 2 -28 21 -21 21 8 0 16 -4 23 -11 18
-7 -4 -9 0 -5 12 3 11 6 43 7 72 2 49 10 64 24 42 8 -13 34 -1 45 20 9 16 4
18 -38 22 l-47 3 1 -90z m69 65 c3 -5 -1 -10 -10 -10 -9 0 -13 5 -10 10 3 6 8
10 10 10 2 0 7 -4 10 -10z"/>
<path d="M1488 5603 c7 -3 16 -2 19 1 4 3 -2 6 -13 5 -11 0 -14 -3 -6 -6z"/>
<path d="M1598 5597 c-9 -6 -8 -7 5 -3 9 3 17 0 17 -6 0 -9 3 -9 12 0 17 17
33 15 18 -3 -7 -9 -10 -18 -6 -22 3 -3 6 -1 6 6 0 8 6 11 16 7 8 -3 12 -2 9 4
-3 6 1 10 9 10 9 0 16 5 16 10 0 13 -84 10 -102 -3z"/>
<path d="M7944 5599 c-5 -8 -3 -9 6 -4 7 4 16 2 22 -6 8 -12 9 -12 6 0 -6 20
-24 25 -34 10z"/>
<path d="M1497 5579 c7 -7 15 -10 18 -7 3 3 -2 9 -12 12 -14 6 -15 5 -6 -5z"/>
<path d="M1620 5560 c0 -5 -7 -10 -15 -10 -8 0 -15 -5 -15 -10 0 -7 6 -7 20 0
18 10 28 30 15 30 -3 0 -5 -4 -5 -10z"/>
<path d="M7961 5479 c1 -41 5 -112 9 -159 6 -67 7 -51 4 69 -2 85 -6 157 -9
159 -3 3 -5 -28 -4 -69z"/>
<path d="M4448 5523 c6 -2 18 -2 25 0 6 3 1 5 -13 5 -14 0 -19 -2 -12 -5z"/>
<path d="M1562 5495 c0 -16 2 -22 5 -12 2 9 2 23 0 30 -3 6 -5 -1 -5 -18z"/>
<path d="M1586 5502 c-4 -11 -6 -32 -5 -48 1 -16 -2 -48 -6 -71 -5 -27 -4 -43
3 -43 5 0 13 39 17 86 7 84 3 115 -9 76z"/>
<path d="M1613 5355 c0 -22 2 -30 4 -17 2 12 2 30 0 40 -3 9 -5 -1 -4 -23z"/>
<path d="M8005 5359 c-4 -6 -5 -12 -2 -15 2 -3 7 2 10 11 7 17 1 20 -8 4z"/>
<path d="M8012 5300 c0 -19 2 -27 5 -17 2 9 2 25 0 35 -3 9 -5 1 -5 -18z"/>
<path d="M8022 5220 c0 -19 2 -27 5 -17 2 9 2 25 0 35 -3 9 -5 1 -5 -18z"/>
<path d="M1582 5090 c-1 -58 3 -112 8 -120 11 -18 12 59 0 160 -7 62 -7 60 -8
-40z"/>
<path d="M1643 5135 c0 -22 2 -30 4 -17 2 12 2 30 0 40 -3 9 -5 -1 -4 -23z"/>
<path d="M7980 5058 c0 -35 -3 -121 -6 -193 -4 -71 -4 -127 0 -124 9 8 21 379
12 379 -3 0 -6 -28 -6 -62z"/>
<path d="M1651 5074 c0 -11 3 -14 6 -6 3 7 2 16 -1 19 -3 4 -6 -2 -5 -13z"/>
<path d="M8041 5054 c0 -11 3 -14 6 -6 3 7 2 16 -1 19 -3 4 -6 -2 -5 -13z"/>
<path d="M1662 5010 c0 -14 2 -19 5 -12 2 6 2 18 0 25 -3 6 -5 1 -5 -13z"/>
<path d="M1672 4955 c0 -16 2 -22 5 -12 2 9 2 23 0 30 -3 6 -5 -1 -5 -18z"/>
<path d="M1576 4894 c-7 -55 -8 -260 -1 -252 6 6 18 298 12 298 -2 0 -7 -21
-11 -46z"/>
<path d="M8062 4910 c0 -14 2 -19 5 -12 2 6 2 18 0 25 -3 6 -5 1 -5 -13z"/>
<path d="M1682 4900 c0 -14 2 -19 5 -12 2 6 2 18 0 25 -3 6 -5 1 -5 -13z"/>
<path d="M4930 4869 c-69 -29 -115 -103 -142 -227 -23 -109 -77 -227 -142
-312 -24 -30 -48 -65 -55 -77 -12 -24 -59 -296 -92 -533 -17 -123 -19 -175
-14 -340 l7 -195 -46 93 c-25 51 -53 117 -61 146 -38 130 -100 98 -154 -79 -7
-22 -14 -46 -17 -53 -3 -10 -13 -8 -43 9 -42 23 -45 39 -20 93 12 26 11 30
-10 47 -28 23 -50 24 -76 5 -20 -14 -25 -58 -12 -108 7 -25 4 -28 -32 -38 -44
-12 -56 -23 -68 -65 -12 -43 -20 143 -12 265 3 52 2 99 -2 105 -5 5 -9 17 -9
27 0 19 -80 310 -104 378 -10 29 -28 44 -105 90 -52 30 -99 63 -105 72 -8 14
-6 29 8 65 40 105 30 174 -32 217 -56 38 -96 35 -143 -13 -37 -37 -39 -41 -39
-104 0 -48 5 -75 20 -100 11 -19 18 -42 14 -50 -3 -9 -47 -38 -97 -66 -133
-71 -141 -80 -160 -187 -25 -141 -31 -212 -18 -228 8 -10 7 -24 -5 -57 -12
-33 -18 -92 -22 -229 l-4 -185 -40 0 c-31 0 -41 5 -51 25 -7 14 -18 25 -25 24
-7 -1 -23 -2 -37 -2 -21 -2 -25 -7 -26 -34 l-1 -33 -7 30 c-4 19 -2 35 6 43
16 17 6 42 -18 42 -12 0 -19 -7 -19 -20 0 -15 -7 -20 -29 -20 -36 0 -57 -20
-66 -60 -9 -40 -31 -38 -45 5 -9 28 -17 35 -38 35 -32 0 -45 -8 -59 -34 -10
-18 -11 -18 -23 5 -17 32 -30 39 -60 32 -32 -7 -60 -32 -60 -52 0 -9 -11 1
-25 21 -27 40 -63 58 -75 38 -8 -14 -13 -3 -25 58 -5 26 -15 37 -40 48 -70 29
-115 -4 -115 -85 0 -29 -4 -38 -17 -38 -10 0 -23 3 -28 8 -6 4 -39 7 -74 5
-59 -2 -66 -5 -92 -37 -25 -29 -31 -32 -42 -19 -6 8 -19 16 -27 18 -8 2 -18 8
-21 14 -3 5 -21 13 -40 17 -19 4 -44 11 -56 15 -16 5 -28 1 -43 -14 -15 -15
-25 -18 -33 -12 -13 11 -26 12 -132 13 -74 0 -95 -12 -95 -55 0 -17 -3 -15
-19 11 -11 17 -29 34 -40 38 -23 7 -56 -8 -69 -31 -7 -13 -11 -12 -25 10 -21
31 -64 57 -54 32 18 -43 17 -48 -1 -19 -14 21 -34 35 -59 42 -53 15 -61 14
-68 -9 -3 -11 -10 -20 -14 -20 -10 0 -53 48 -74 83 -15 23 -24 27 -66 27 -55
0 -69 -11 -78 -64 -5 -34 -8 -36 -44 -36 -28 0 -42 -6 -51 -20 -15 -23 -40
-27 -32 -5 8 19 -35 104 -59 117 -22 11 -73 4 -94 -13 -7 -6 -13 -25 -13 -41
0 -23 -4 -29 -16 -24 -43 16 -92 17 -122 2 -16 -8 -32 -21 -34 -27 -7 -21 -49
2 -60 32 -19 54 -100 54 -129 1 -9 -19 -20 -37 -24 -40 -12 -12 -25 23 -25 66
0 75 -68 116 -121 73 -24 -20 -24 -20 -6 -53 l19 -33 -26 24 c-16 15 -34 51
-47 93 -21 71 -37 88 -83 88 l-26 0 0 -759 0 -760 142 -3 c177 -4 186 -3 190
25 4 31 58 38 58 8 0 -25 -5 -25 67 -6 66 17 87 19 78 5 -7 -12 47 -40 79 -40
13 0 32 7 40 16 15 14 18 14 36 -8 11 -12 19 -18 20 -13 0 6 27 9 66 7 46 -3
64 0 60 7 -4 7 -1 9 8 5 9 -3 16 -1 16 5 0 6 5 11 11 11 5 0 8 -4 5 -9 -6 -8
12 -5 109 21 22 6 47 11 55 12 9 1 21 5 27 9 19 12 26 -12 10 -36 -18 -28 -5
-42 38 -42 22 0 33 6 40 23 8 19 17 22 60 22 35 0 57 6 71 18 22 20 84 24 84
5 0 -18 30 -16 69 3 18 9 54 17 81 18 26 0 46 4 44 8 -5 8 44 4 52 -5 3 -3 14
-2 23 2 78 39 200 56 216 30 7 -10 61 8 95 31 14 10 36 20 50 24 27 8 22 2
-29 -34 -31 -21 -26 -30 11 -19 60 17 62 9 8 -27 -32 -20 -44 -32 -30 -28 14
4 28 11 31 16 3 5 8 9 10 8 17 -8 184 47 248 82 29 16 55 27 57 25 2 -2 -3
-20 -11 -40 -14 -34 -14 -36 2 -30 12 5 15 2 11 -8 -6 -16 27 -18 73 -5 20 6
25 12 22 27 -6 23 13 50 31 43 8 -3 22 3 31 13 10 10 21 18 24 18 3 0 22 8 41
17 50 23 93 42 105 43 6 1 21 7 35 12 22 10 23 12 7 18 -16 7 -13 12 20 42 52
48 70 56 77 37 5 -13 9 -14 21 -4 8 7 12 16 9 21 -3 5 2 9 10 9 9 0 16 -2 16
-5 0 -12 -35 -75 -42 -75 -4 0 -8 -5 -8 -11 0 -16 68 -4 90 16 10 9 28 41 40
71 28 69 44 70 35 4 -9 -69 9 -65 42 8 15 31 31 61 37 65 8 6 8 10 0 13 -6 2
-8 18 -6 35 3 24 8 28 23 24 12 -4 21 -1 24 7 3 8 20 15 38 15 30 2 31 1 10
-9 -13 -6 -23 -18 -23 -27 0 -12 -2 -13 -8 -3 -7 9 -14 7 -33 -9 l-24 -22 30
8 c17 4 38 8 47 9 9 0 14 4 12 8 -3 4 1 8 9 8 16 0 77 29 77 37 0 3 -9 3 -20
0 -27 -7 -36 10 -15 33 11 12 13 20 6 25 -23 14 -11 32 21 31 18 0 33 4 33 9
1 6 6 20 13 31 6 12 8 24 5 28 -3 3 -2 6 4 6 6 0 13 -10 16 -22 2 -13 8 -31
12 -41 5 -13 3 -16 -8 -11 -8 3 -18 0 -22 -6 -3 -6 -3 -10 2 -9 22 4 31 -3 26
-21 -4 -13 0 -20 10 -20 18 0 30 38 35 109 3 42 14 15 23 -61 15 -114 33 -186
51 -200 9 -7 29 -44 44 -81 22 -58 26 -78 21 -133 -2 -36 0 -78 6 -94 9 -24 7
-32 -15 -59 -15 -17 -32 -47 -38 -68 -7 -21 -25 -51 -40 -68 -15 -16 -35 -44
-44 -62 -9 -18 -34 -51 -56 -75 -22 -23 -52 -57 -67 -76 -22 -30 -23 -33 -5
-23 11 6 23 16 26 23 3 7 3 2 0 -12 l-5 -25 22 25 c15 16 20 19 16 8 -7 -20 0
-22 23 -8 9 6 17 5 21 -2 4 -7 15 14 24 44 9 31 29 74 46 95 16 21 44 57 61
80 17 24 33 41 35 39 6 -5 -51 -109 -69 -128 -10 -10 -18 -26 -18 -35 0 -10
-11 -38 -25 -62 -27 -46 -33 -66 -12 -37 7 10 31 20 52 22 22 3 45 7 51 9 11
3 54 83 54 100 0 4 26 47 58 94 97 145 104 170 76 273 -16 56 -16 60 5 121 11
35 21 70 21 77 0 8 10 24 23 38 18 19 23 39 28 115 6 78 36 221 38 178 1 -11
6 -10 21 4 12 10 18 25 16 32 -3 7 -3 27 0 43 6 26 10 29 32 23 23 -5 24 -4
20 21 -3 15 0 30 7 34 7 4 15 14 18 22 3 9 6 4 6 -12 1 -22 -3 -26 -16 -22
-16 5 -16 4 -2 -8 8 -7 18 -21 22 -32 7 -17 9 -17 32 -2 14 9 25 12 25 7 0
-12 32 -2 41 12 12 17 28 -125 33 -286 4 -150 3 -160 -20 -218 -14 -34 -23
-64 -20 -67 4 -3 6 1 6 9 1 8 7 3 16 -11 15 -25 15 -25 8 -1 -4 15 -2 21 4 17
7 -4 19 19 31 60 17 52 22 102 25 242 9 344 32 368 46 48 7 -171 6 -196 -11
-258 -14 -49 -16 -74 -9 -86 9 -16 9 -16 10 1 0 9 6 17 14 17 8 0 18 22 26 63
6 34 15 74 20 88 4 14 4 50 -2 78 -5 29 -6 61 -3 70 10 23 26 169 32 286 l6
100 23 -90 c13 -49 27 -108 30 -130 3 -22 15 -70 26 -107 17 -56 18 -73 8
-103 -9 -26 -9 -53 -1 -106 10 -59 9 -72 -4 -85 -8 -9 -15 -27 -15 -42 0 -15
-9 -42 -20 -60 -12 -19 -15 -30 -8 -26 7 5 22 10 33 11 10 2 22 8 26 15 4 6
11 8 16 5 6 -4 17 47 26 118 9 69 24 139 33 157 9 18 18 49 19 68 11 181 17
211 53 272 l36 60 13 -95 c14 -115 32 -159 33 -82 2 66 18 107 20 50 1 -22 5
-49 9 -60 7 -18 9 -17 14 10 9 46 16 103 22 180 9 115 21 168 36 160 5 -4 9
-1 9 4 0 6 -7 11 -16 11 -8 0 -12 5 -9 10 6 9 29 8 121 -6 l31 -4 6 -213 c6
-209 26 -413 67 -698 29 -203 28 -199 62 -213 l29 -13 -35 -27 c-33 -25 -36
-31 -36 -81 0 -44 8 -70 46 -145 l47 -91 81 6 c45 3 95 8 111 10 17 3 53 7 80
10 62 5 154 24 178 37 11 5 17 5 17 -1 0 -18 28 0 33 21 4 15 -2 23 -28 34
-19 8 -49 27 -67 43 -45 38 -72 52 -143 71 l-60 16 3 68 c2 41 -1 73 -8 81
-17 20 -4 49 39 94 30 31 40 51 45 88 10 76 17 81 71 55 61 -30 82 -22 97 33
10 38 16 44 46 50 29 5 33 9 27 28 -15 47 -17 143 -5 211 23 125 17 185 -35
371 l-47 169 16 47 c14 38 15 57 7 110 -6 35 -11 81 -11 102 0 47 40 129 91
184 22 24 39 47 39 53 0 6 9 31 20 55 18 40 19 46 5 93 -8 27 -28 63 -44 78
-20 20 -42 68 -73 159 -25 72 -70 187 -101 256 -31 69 -81 202 -112 295 -62
186 -86 237 -127 267 -31 23 -111 32 -148 16z m-1119 -1380 c16 -64 35 -129
44 -145 17 -32 21 -169 5 -159 -5 3 -6 13 -3 21 8 21 -15 34 -41 25 -19 -8
-22 -1 -43 102 -16 76 -20 114 -12 123 6 7 8 59 5 135 -4 106 -3 116 5 69 6
-30 24 -107 40 -171z m-514 24 c2 -32 6 -76 9 -99 4 -26 0 -58 -10 -88 -9 -26
-16 -61 -16 -77 0 -24 -4 -30 -15 -25 -8 3 -15 1 -15 -5 0 -6 -9 -8 -20 -4
-19 6 -30 -9 -12 -17 4 -1 2 -14 -6 -28 -12 -23 -13 -20 -8 35 3 33 17 96 31
140 13 44 25 101 25 126 0 47 18 114 28 105 3 -3 7 -32 9 -63z m-807 -336 c0
-5 -11 5 -25 21 -14 17 -25 33 -25 37 0 5 11 -5 25 -21 14 -16 25 -33 25 -37z
m-1113 21 c-3 -8 -6 -5 -6 6 -1 11 2 17 5 13 3 -3 4 -12 1 -19z m-126 -15 c13
-16 12 -17 -3 -4 -10 7 -18 15 -18 17 0 8 8 3 21 -13z m1810 -20 l24 -28 -30
25 c-16 14 -32 26 -34 28 -2 1 0 2 6 2 5 0 20 -12 34 -27z m-1776 -34 c9 -17
15 -33 13 -35 -3 -2 -12 12 -21 31 -21 43 -13 47 8 4z m1212 9 c-3 -8 -6 -5
-6 6 -1 11 2 17 5 13 3 -3 4 -12 1 -19z m-1895 -50 c31 -45 14 -32 -28 20 -21
26 -28 38 -15 27 13 -11 32 -32 43 -47z m2498 7 c0 -5 -5 -3 -10 5 -5 8 -10
20 -10 25 0 6 5 3 10 -5 5 -8 10 -19 10 -25z m-593 -12 c-3 -10 -5 -4 -5 12 0
17 2 24 5 18 2 -7 2 -21 0 -30z m-970 5 c-3 -8 -6 -5 -6 6 -1 11 2 17 5 13 3
-3 4 -12 1 -19z m537 -86 c14 -42 22 -72 17 -66 -5 5 -16 34 -26 64 -9 30 -24
66 -33 80 -14 23 -14 24 1 12 8 -7 27 -48 41 -90z m1046 43 c0 -5 -5 -3 -10 5
-5 8 -10 20 -10 25 0 6 5 3 10 -5 5 -8 10 -19 10 -25z m-1391 -25 c0 -9 -4 -8
-9 5 -5 11 -9 27 -9 35 0 9 4 8 9 -5 5 -11 9 -27 9 -35z m788 18 c-3 -8 -6 -5
-6 6 -1 11 2 17 5 13 3 -3 4 -12 1 -19z m722 -68 c0 -10 -3 -8 -9 5 -12 27
-12 43 0 25 5 -8 9 -22 9 -30z m728 -77 c-2 -16 -4 -5 -4 22 0 28 2 40 4 28 2
-13 2 -35 0 -50z m-790 -80 c-3 -10 -5 -2 -5 17 0 19 2 27 5 18 2 -10 2 -26 0
-35z m-80 5 c-3 -8 -6 -5 -6 6 -1 11 2 17 5 13 3 -3 4 -12 1 -19z m-1840 -30
c-3 -8 -6 -5 -6 6 -1 11 2 17 5 13 3 -3 4 -12 1 -19z m1850 -55 c-3 -10 -5 -2
-5 17 0 19 2 27 5 18 2 -10 2 -26 0 -35z m443 -38 c0 -36 -3 -65 -7 -65 -5 0
-6 29 -5 65 2 36 6 65 8 65 2 0 4 -29 4 -65z m-383 18 c-3 -10 -5 -4 -5 12 0
17 2 24 5 18 2 -7 2 -21 0 -30z m-690 5 c-3 -8 -6 -5 -6 6 -1 11 2 17 5 13 3
-3 4 -12 1 -19z m460 -80 c-2 -18 -4 -6 -4 27 0 33 2 48 4 33 2 -15 2 -42 0
-60z m127 33 c-4 -23 -9 -40 -11 -37 -3 3 -2 23 2 46 4 23 9 39 11 37 3 -2 2
-23 -2 -46z m26 -67 c-15 -17 -30 -18 -30 -1 0 7 9 13 21 14 17 2 18 -1 9 -13z
m-633 -26 c-3 -8 -6 -5 -6 6 -1 11 2 17 5 13 3 -3 4 -12 1 -19z m306 -62 c9
-7 17 -19 17 -26 0 -7 -3 -10 -6 -7 -4 3 -15 2 -26 -4 -16 -9 -18 -6 -16 21 3
34 5 35 31 16z m-157 -35 c-4 -5 -2 -11 4 -13 5 -1 11 -14 12 -28 3 -22 -5
-29 -55 -53 -32 -15 -62 -25 -68 -22 -16 10 -10 35 9 36 15 0 15 1 -2 8 -18 7
-18 8 5 24 13 9 31 17 41 17 10 0 23 9 30 20 7 11 16 20 21 20 4 0 6 -4 3 -9z
m-159 -33 c-3 -7 -5 -2 -5 12 0 14 2 19 5 13 2 -7 2 -19 0 -25z m128 22 c-3
-5 -12 -10 -18 -10 -7 0 -6 4 3 10 19 12 23 12 15 0z m-493 -52 c-7 -7 -12 -8
-12 -2 0 6 3 14 7 17 3 4 9 5 12 2 2 -3 -1 -11 -7 -17z m738 -7 c0 -8 -23 -18
-62 -27 -29 -6 -20 6 15 21 38 17 47 18 47 6z m-980 -61 c0 -5 -5 -10 -11 -10
-5 0 -7 5 -4 10 3 6 8 10 11 10 2 0 4 -4 4 -10z m620 1 c0 -12 -20 -25 -27
-18 -7 7 6 27 18 27 5 0 9 -4 9 -9z m-690 -30 c0 -10 -60 -35 -110 -46 -46
-10 -37 -2 35 29 67 28 75 30 75 17z m855 -11 c-9 -15 -116 -85 -152 -99 -22
-9 -30 -18 -26 -29 4 -14 3 -14 -5 -3 -9 12 -13 12 -26 2 -13 -11 -16 -11 -16
2 0 23 12 31 120 86 101 52 115 57 105 41z m-868 -41 c-48 -25 -199 -81 -204
-75 -3 2 6 7 19 11 13 4 48 19 78 33 80 38 113 50 130 51 8 0 -2 -9 -23 -20z
m524 -14 c7 18 8 17 8 -6 1 -23 -2 -26 -26 -21 -16 3 -22 7 -15 9 6 3 13 12
13 21 1 13 3 12 7 -3 l5 -20 8 20z m-741 -69 c0 -2 -7 -7 -16 -10 -8 -3 -12
-2 -9 4 6 10 25 14 25 6z m-591 -81 c3 -8 -100 -75 -115 -75 -2 0 -4 10 -4 23
0 25 18 53 38 58 25 8 77 4 81 -6z m269 -17 c-2 -7 -7 -18 -13 -24 -7 -9 -12
-6 -17 10 -6 21 -6 21 -7 -1 -1 -31 -21 -29 -21 2 0 21 5 25 30 25 18 0 29 -5
28 -12z m3764 -63 c-5 -26 -16 -32 -27 -15 -10 16 2 40 18 40 10 0 13 -8 9
-25z m-4557 5 c-3 -5 -10 -10 -16 -10 -5 0 -9 5 -9 10 0 6 7 10 16 10 8 0 12
-4 9 -10z"/>
<path d="M3220 3240 c0 -5 5 -10 10 -10 6 0 10 5 10 10 0 6 -4 10 -10 10 -5 0
-10 -4 -10 -10z"/>
<path d="M2558 2423 c7 -3 16 -2 19 1 4 3 -2 6 -13 5 -11 0 -14 -3 -6 -6z"/>
<path d="M1692 4840 c0 -14 2 -19 5 -12 2 6 2 18 0 25 -3 6 -5 1 -5 -13z"/>
<path d="M1702 4785 c0 -16 2 -22 5 -12 2 9 2 23 0 30 -3 6 -5 -1 -5 -18z"/>
<path d="M1712 4730 c0 -14 2 -19 5 -12 2 6 2 18 0 25 -3 6 -5 1 -5 -13z"/>
<path d="M1721 4684 c0 -11 3 -14 6 -6 3 7 2 16 -1 19 -3 4 -6 -2 -5 -13z"/>
<path d="M3459 4683 c-13 -16 -12 -17 4 -4 16 13 21 21 13 21 -2 0 -10 -8 -17
-17z"/>
<path d="M8092 4680 c0 -14 2 -19 5 -12 2 6 2 18 0 25 -3 6 -5 1 -5 -13z"/>
<path d="M1731 4644 c0 -11 3 -14 6 -6 3 7 2 16 -1 19 -3 4 -6 -2 -5 -13z"/>
<path d="M3404 4619 c-50 -53 -181 -149 -267 -194 -155 -83 -364 -134 -490
-121 -34 3 -87 9 -118 12 -32 4 -72 2 -90 -5 -19 -5 -83 -11 -142 -12 -59 -1
-110 -6 -113 -11 -3 -4 -13 -8 -22 -8 -13 0 -13 2 4 15 28 21 14 18 -49 -10
-72 -31 -175 -49 -239 -41 -40 6 -54 3 -69 -10 -18 -16 -78 -30 -167 -39 -50
-4 -114 -39 -157 -85 l-30 -32 60 30 c93 48 119 49 211 11 118 -49 199 -47
416 10 92 23 173 41 180 39 7 -3 -35 -23 -94 -46 -200 -77 -314 -97 -555 -96
-197 0 -193 1 -172 -52 22 -61 -12 -93 -99 -95 l-47 0 55 -27 c39 -20 56 -34
58 -50 9 -60 -60 -96 -203 -106 -113 -7 -231 -54 -333 -131 -62 -48 -44 -44
29 6 93 63 123 72 214 69 44 -2 121 -4 171 -3 89 0 95 1 200 51 134 63 188 77
368 97 330 36 416 56 580 135 188 90 353 206 671 471 124 104 289 259 274 259
-3 0 -18 -14 -35 -31z"/>
<path d="M8102 4620 c0 -14 2 -19 5 -12 2 6 2 18 0 25 -3 6 -5 1 -5 -13z"/>
<path d="M1741 4604 c0 -11 3 -14 6 -6 3 7 2 16 -1 19 -3 4 -6 -2 -5 -13z"/>
<path d="M8112 4565 c0 -16 4 -43 8 -60 11 -42 11 -1 1 50 -7 34 -9 35 -9 10z"/>
<path d="M2394 4541 c-50 -21 -104 -45 -120 -54 -39 -22 -145 -64 -183 -72
-17 -4 -31 -10 -31 -14 0 -4 -23 -14 -51 -21 -91 -25 -34 -22 81 4 70 16 132
37 168 57 31 18 102 56 157 85 117 62 108 68 -21 15z"/>
<path d="M8131 4454 c0 -11 3 -14 6 -6 3 7 2 16 -1 19 -3 4 -6 -2 -5 -13z"/>
<path d="M1607 4269 c-48 -25 -44 -31 13 -18 25 6 65 9 90 7 48 -3 67 13 28
24 -44 12 -93 7 -131 -13z"/>
<path d="M2724 3940 c-98 -34 -220 -68 -308 -85 -55 -11 -20 -13 74 -4 52 5
151 17 219 25 102 13 127 14 148 3 26 -14 31 -12 136 54 55 34 58 49 4 17 -31
-19 -125 -50 -150 -50 -4 0 -3 9 3 20 8 14 8 26 0 40 -6 11 -12 20 -13 19 -1
0 -52 -18 -113 -39z"/>
<path d="M2325 3744 c-9 -15 -12 -23 -6 -20 11 7 35 46 28 46 -3 0 -12 -12
-22 -26z"/>
<path d="M978 3713 c7 -3 16 -2 19 1 4 3 -2 6 -13 5 -11 0 -14 -3 -6 -6z"/>
<path d="M913 3703 c9 -2 25 -2 35 0 9 3 1 5 -18 5 -19 0 -27 -2 -17 -5z"/>
<path d="M1061 3699 c-13 -5 -21 -12 -18 -15 3 -3 18 1 34 10 31 17 21 20 -16
5z"/>
<path d="M2435 3700 c-16 -7 -17 -9 -3 -9 9 -1 20 4 23 9 7 11 7 11 -20 0z"/>
<path d="M2564 3694 c-18 -14 -18 -15 4 -4 12 6 22 13 22 15 0 8 -5 6 -26 -11z"/>
<path d="M809 3633 c-13 -16 -12 -17 4 -4 9 7 17 15 17 17 0 8 -8 3 -21 -13z"/>
<path d="M879 3623 c-13 -16 -12 -17 4 -4 9 7 17 15 17 17 0 8 -8 3 -21 -13z"/>
<path d="M10120 3380 c-8 -6 -34 -7 -56 -4 -39 6 -42 4 -63 -30 -23 -37 -48
-50 -74 -40 -9 3 -30 -1 -46 -9 -27 -13 -30 -13 -34 4 -3 12 -14 19 -31 19
-25 0 -34 -7 -60 -44 -13 -19 -14 -19 -49 3 -20 12 -53 24 -74 26 -21 1 -43 3
-49 4 -6 1 -14 15 -17 31 -6 27 -10 30 -43 30 -28 0 -37 -5 -41 -21 -5 -16
-11 -19 -34 -14 -24 6 -35 1 -63 -27 -18 -18 -35 -39 -37 -46 -3 -8 -25 7 -59
39 -82 77 -94 83 -130 70 -17 -5 -36 -8 -43 -5 -14 5 -54 -32 -44 -42 3 -3 15
4 26 15 12 12 21 17 21 11 0 -5 -31 -30 -69 -55 -52 -34 -75 -44 -97 -40 -16
2 -46 7 -66 10 -31 5 -37 10 -40 33 -3 30 -68 74 -103 70 -26 -4 -51 -55 -38
-77 9 -14 4 -17 -29 -17 -33 -1 -41 3 -54 27 -18 37 -60 40 -73 7 -5 -13 -6
-27 -4 -31 3 -5 -3 -17 -12 -27 -10 -11 -14 -24 -9 -32 4 -7 -2 -5 -14 5 -14
13 -21 30 -20 57 1 70 -48 113 -105 91 -27 -11 -40 -32 -51 -83 -4 -16 -12
-28 -19 -28 -7 0 -26 -13 -41 -29 -27 -28 -28 -28 -69 -14 -29 10 -47 11 -63
4 -17 -7 -25 -6 -34 5 -7 8 -29 14 -50 14 -34 0 -38 3 -44 30 -10 53 -98 62
-121 12 -7 -16 -18 -22 -42 -22 -20 0 -36 -7 -41 -17 -9 -15 -13 -13 -36 13
-14 16 -30 46 -36 67 -9 31 -15 37 -38 37 -49 0 -56 -12 -49 -80 4 -35 3 -59
-2 -55 -5 3 -12 -1 -14 -7 -3 -7 -6 -3 -6 10 -1 18 -7 22 -36 22 -33 0 -35 2
-46 45 -13 53 -29 68 -70 67 -53 -1 -73 -23 -87 -92 l-13 -62 -28 26 c-29 28
-50 33 -68 15 -8 -8 -13 -8 -17 0 -13 20 -46 13 -46 -10 0 -19 -4 -21 -37 -14
-49 9 -46 7 -84 65 -46 71 -79 77 -99 16 -6 -18 -24 -45 -39 -60 l-29 -28 -4
27 c-2 16 -15 37 -29 48 -26 19 -28 19 -57 2 -16 -10 -39 -34 -50 -53 l-19
-34 -7 26 c-8 33 -55 38 -63 6 -6 -22 -18 -26 -28 -10 -9 15 -75 13 -75 -2 0
-10 -3 -9 -9 1 -7 11 -10 10 -18 -4 -9 -15 -11 -16 -16 -1 -4 9 -18 16 -34 16
-23 0 -31 6 -40 30 -14 38 -35 46 -72 27 -17 -8 -46 -14 -65 -12 -33 3 -36 1
-42 -32 -7 -35 -40 -60 -57 -43 -10 9 -47 1 -47 -10 0 -4 -9 -10 -21 -13 -15
-4 -18 -3 -9 7 8 10 5 13 -12 12 -16 -1 -23 -7 -23 -21 1 -12 7 -19 15 -17 9
2 5 -7 -9 -22 -26 -28 -42 -36 -21 -11 14 17 5 50 -11 39 -6 -3 -3 6 7 21 l18
28 -24 -13 c-14 -8 -40 -13 -57 -11 -18 1 -33 -2 -33 -7 0 -12 -38 -23 -45
-12 -3 4 -13 6 -24 3 -10 -2 -25 2 -33 11 -9 8 -18 12 -22 9 -3 -4 -6 2 -6 13
0 14 -2 16 -9 5 -7 -11 -9 -11 -14 0 -4 10 -8 7 -12 -7 -10 -34 -61 -37 -86
-6 -10 14 -19 34 -19 46 0 31 -23 59 -46 55 -10 -2 -28 -22 -39 -45 -26 -53
-60 -95 -70 -86 -5 4 -5 -1 -2 -10 3 -10 3 -17 -1 -15 -4 1 -8 -2 -9 -7 0 -5
-8 -13 -16 -17 -18 -11 -32 -60 -19 -68 5 -3 12 -17 16 -31 6 -21 5 -22 -4 -7
-6 9 -15 17 -21 17 -5 0 0 -10 11 -22 12 -13 16 -24 11 -26 -6 -2 2 -16 18
-30 22 -20 31 -39 34 -73 3 -25 10 -55 16 -67 7 -12 11 -78 11 -165 0 -123 3
-154 21 -199 11 -29 26 -61 34 -71 15 -20 69 -32 58 -13 -4 7 -1 7 7 -1 7 -6
19 -9 26 -6 8 3 14 0 14 -7 0 -6 5 -8 10 -5 6 3 10 11 10 16 0 6 -4 7 -10 4
-5 -3 -10 -1 -10 4 0 6 -13 30 -30 52 -16 23 -32 56 -36 75 -7 39 13 262 28
304 12 36 28 39 28 7 0 -14 6 -24 15 -24 11 0 15 14 16 56 l1 56 13 -70 c7
-38 17 -81 23 -95 9 -24 10 -23 17 15 3 22 11 53 16 69 5 16 10 45 10 65 2 53
15 -49 23 -173 3 -55 8 -101 11 -104 3 -3 -1 -12 -8 -20 -10 -13 -9 -15 6 -9
10 4 16 3 12 -2 -3 -5 -1 -12 5 -16 6 -4 8 -11 4 -16 -3 -5 -10 -7 -15 -4 -5
4 -9 1 -9 -4 0 -14 17 -14 25 -1 3 6 11 10 17 10 7 0 6 -6 -2 -15 -10 -12 -9
-15 6 -16 11 -1 22 -1 27 0 4 0 7 -4 7 -9 0 -6 5 -10 12 -10 7 0 -2 15 -19 33
-42 44 -48 78 -23 134 11 25 20 64 20 87 0 34 28 128 47 159 8 14 23 -15 23
-45 0 -16 5 -28 11 -28 5 0 7 -6 3 -12 -4 -7 2 -4 14 6 12 11 22 26 22 35 1
12 3 11 12 -4 16 -29 16 -29 33 -15 23 19 40 -2 38 -50 -2 -37 1 -42 43 -66
24 -14 49 -33 55 -42 8 -14 9 -13 4 6 -4 13 -2 22 5 22 7 0 10 -12 9 -28 -2
-17 3 -36 14 -46 9 -10 17 -23 18 -29 0 -16 16 -93 29 -147 6 -25 15 -80 19
-123 6 -59 13 -83 29 -97 18 -17 21 -17 26 -3 5 12 9 13 21 3 13 -11 14 -10 8
6 -6 17 -5 18 13 4 13 -10 11 -6 -5 12 -13 15 -27 25 -31 23 -4 -2 -7 1 -7 8
-1 7 -7 26 -14 43 -11 28 -9 42 19 125 17 52 34 118 38 147 3 28 10 52 14 52
5 0 6 8 3 19 -3 11 2 21 12 25 20 7 41 -7 48 -33 3 -15 0 -18 -17 -14 -16 3
-18 2 -6 -5 8 -6 29 -12 45 -15 17 -3 38 -8 48 -12 15 -6 18 -3 17 16 -5 62
-2 69 34 69 l34 0 4 -69 c3 -66 2 -69 -17 -59 -18 10 -18 9 2 -13 13 -14 23
-40 24 -59 2 -19 7 -44 13 -55 5 -11 12 -67 15 -125 l6 -105 28 -3 c26 -3 28
-2 17 18 -8 15 -10 48 -5 101 l7 79 58 0 c57 0 85 12 55 24 -17 6 -19 24 -6
45 7 11 17 10 55 -8 l46 -23 -6 -56 c-8 -80 -13 -104 -23 -97 -5 3 4 -22 20
-55 16 -33 33 -60 38 -60 25 0 31 62 11 100 -7 12 -6 20 0 22 6 2 16 33 22 71
9 56 13 64 23 50 7 -10 17 -13 25 -8 8 5 11 4 6 -3 -7 -11 18 -28 63 -42 14
-5 50 -17 80 -28 44 -16 50 -21 33 -26 l-20 -7 21 -23 c12 -12 30 -25 40 -29
9 -3 18 -17 19 -29 0 -13 2 -29 2 -37 1 -7 21 -30 45 -50 25 -20 41 -30 37
-23 -9 16 6 16 23 0 11 -11 12 -10 6 1 -6 11 -4 13 8 8 12 -4 14 -2 10 11 -5
13 -3 14 7 5 7 -6 19 -9 28 -5 13 5 13 7 -4 14 -13 6 -10 7 11 2 16 -3 34 -6
40 -7 5 -1 9 4 7 11 -2 10 2 10 16 3 14 -8 19 -6 19 5 0 7 -3 14 -6 14 -12 0
-73 41 -69 46 8 7 91 -25 131 -52 21 -14 43 -22 49 -18 7 4 8 3 4 -4 -4 -7 -4
-12 1 -13 4 0 28 -3 53 -5 35 -4 42 -2 30 7 -13 10 -13 10 0 6 8 -3 32 -12 52
-21 32 -14 39 -14 51 -1 8 8 16 12 19 10 2 -2 37 -7 78 -10 41 -3 104 -15 138
-26 35 -10 69 -16 75 -12 6 4 7 1 2 -6 -5 -9 -1 -12 12 -9 10 1 28 -7 41 -20
23 -23 52 -30 52 -12 0 6 7 10 15 10 9 0 12 6 9 15 -4 8 -1 15 5 15 6 0 16
-11 20 -23 5 -13 23 -30 40 -37 37 -15 101 -6 101 15 0 7 9 13 19 12 11 0 18
-4 15 -8 -10 -17 28 -28 96 -27 41 1 90 -2 108 -6 28 -7 32 -5 32 13 0 22 14
28 25 11 4 -6 12 -10 18 -8 7 1 38 -6 69 -15 32 -10 82 -19 111 -22 49 -4 55
-2 60 17 4 15 10 19 24 13 10 -4 30 -10 46 -13 15 -2 27 -8 27 -13 0 -5 17 -9
38 -10 33 -1 34 -2 12 -9 -17 -5 -19 -8 -7 -9 9 -1 26 4 36 11 15 9 28 9 55 1
20 -6 34 -7 30 -2 -3 5 76 9 191 9 194 0 196 0 185 20 -10 19 -9 20 17 14 15
-3 55 -15 88 -26 70 -23 77 -24 130 -14 30 5 36 4 25 -4 -12 -9 -11 -10 6 -5
21 6 146 14 212 15 l32 0 0 685 c0 666 -1 685 -19 695 -25 13 -81 13 -101 0z
m-52 -85 c-6 -14 -13 -23 -15 -21 -5 5 15 46 22 46 3 0 -1 -11 -7 -25z m-981
-32 c-3 -10 -5 -4 -5 12 0 17 2 24 5 18 2 -7 2 -21 0 -30z m-10 -60 c-3 -10
-5 -4 -5 12 0 17 2 24 5 18 2 -7 2 -21 0 -30z m283 16 c0 -6 -4 -7 -10 -4 -5
3 -10 11 -10 16 0 6 5 7 10 4 6 -3 10 -11 10 -16z m-1495 -33 c-16 -11 -45
-36 -64 -54 -18 -18 -35 -31 -38 -29 -2 2 18 23 44 46 27 23 55 47 63 54 8 8
17 12 20 9 3 -2 -8 -14 -25 -26z m810 15 c-3 -6 -11 -11 -16 -11 -5 0 -4 6 3
14 14 16 24 13 13 -3z m-424 -18 c-18 -14 -42 -40 -52 -57 -10 -17 -19 -26
-19 -19 0 22 74 102 95 103 6 0 -5 -12 -24 -27z m-889 5 c-13 -16 -72 -51 -72
-44 0 5 70 54 79 55 2 1 -1 -5 -7 -11z m1757 9 c-2 -2 -26 -23 -54 -48 -37
-33 -43 -36 -26 -14 19 26 68 65 80 65 2 0 2 -1 0 -3z m318 -19 c-3 -8 -6 -5
-6 6 -1 11 2 17 5 13 3 -3 4 -12 1 -19z m-2898 -43 c0 -5 -6 1 -14 15 -8 14
-14 30 -14 35 0 6 6 -1 14 -15 8 -14 14 -29 14 -35z m2441 21 c0 -2 -8 -10
-17 -17 -16 -13 -17 -12 -4 4 13 16 21 21 21 13z m-3055 -26 c-3 -5 -13 -10
-21 -10 -8 0 -12 5 -9 10 3 6 13 10 21 10 8 0 12 -4 9 -10z m725 7 c0 -2 -10
-12 -22 -23 l-23 -19 19 23 c18 21 26 27 26 19z m-1063 -49 c-3 -7 -5 -2 -5
12 0 14 2 19 5 13 2 -7 2 -19 0 -25z m3038 -18 c-7 -25 -14 -38 -14 -29 -1 18
20 82 25 77 2 -2 -3 -24 -11 -48z m-1367 -1 c-6 -16 -12 -28 -14 -26 -5 5 13
57 20 57 3 0 0 -14 -6 -31z m475 -29 c-3 -12 -8 -19 -11 -16 -5 6 5 36 12 36
2 0 2 -9 -1 -20z m-16 -67 c-3 -10 -5 -4 -5 12 0 17 2 24 5 18 2 -7 2 -21 0
-30z m-1610 -95 c-3 -8 -6 -5 -6 6 -1 11 2 17 5 13 3 -3 4 -12 1 -19z m2850
-60 c-3 -8 -6 -5 -6 6 -1 11 2 17 5 13 3 -3 4 -12 1 -19z m-2413 -27 c3 -4 -4
-19 -16 -32 -16 -18 -20 -20 -15 -6 4 10 7 25 7 33 0 15 16 19 24 5z m71 -51
c3 -5 1 -10 -4 -10 -6 0 -11 5 -11 10 0 6 2 10 4 10 3 0 8 -4 11 -10z m-928
-172 c-2 -18 -4 -4 -4 32 0 36 2 50 4 33 2 -18 2 -48 0 -65z m1701 -29 c-3 -8
-7 -3 -11 10 -4 17 -3 21 5 13 5 -5 8 -16 6 -23z m-162 -13 c17 -5 24 -12 20
-21 -3 -9 0 -12 9 -9 21 9 114 -67 114 -94 1 -22 1 -22 -61 9 -122 63 -150 81
-136 90 19 13 40 11 32 -3 -5 -7 -3 -8 6 -3 11 7 9 12 -8 23 -12 8 -22 22 -22
31 1 15 1 15 10 0 5 -9 21 -20 36 -23z m-201 -26 c3 -5 1 -10 -4 -10 -6 0 -11
5 -11 10 0 6 2 10 4 10 3 0 8 -4 11 -10z m750 -46 c20 -8 35 -17 32 -20 -3 -3
-22 4 -44 15 -46 24 -40 27 12 5z m-2045 -74 c0 -5 -2 -10 -4 -10 -3 0 -8 5
-11 10 -3 6 -1 10 4 10 6 0 11 -4 11 -10z m2040 -16 c22 -9 40 -20 40 -24 0
-5 17 -11 38 -15 21 -3 51 -14 66 -24 47 -31 6 -32 -80 -1 -107 37 -134 51
-134 67 0 17 21 17 70 -3z m527 -90 c-5 -5 -57 13 -57 20 0 3 14 0 31 -6 16
-6 28 -12 26 -14z m-1856 -11 c13 -16 12 -17 -3 -4 -17 13 -22 21 -14 21 2 0
10 -8 17 -17z m1552 10 c-7 -2 -19 -2 -25 0 -7 3 -2 5 12 5 14 0 19 -2 13 -5z
m77 -3 c0 -5 -12 -10 -26 -10 -14 0 -23 4 -19 10 3 6 15 10 26 10 10 0 19 -4
19 -10z m-525 -18 c-3 -3 -11 0 -18 7 -9 10 -8 11 6 5 10 -3 15 -9 12 -12z
m598 4 c4 -10 1 -13 -9 -9 -7 3 -14 9 -14 14 0 14 17 10 23 -5z m161 -12 c4
-10 1 -14 -6 -12 -15 5 -23 28 -10 28 5 0 13 -7 16 -16z m391 -4 c3 -6 -1 -7
-9 -4 -18 7 -21 14 -7 14 6 0 13 -4 16 -10z m-232 -52 c44 -23 63 -57 23 -42
-9 3 -16 12 -16 20 0 8 -10 14 -26 14 -14 0 -23 4 -19 10 8 13 12 13 38 -2z
m664 -50 c-3 -8 -6 -5 -6 6 -1 11 2 17 5 13 3 -3 4 -12 1 -19z"/>
<path d="M5550 2915 c19 -19 36 -35 39 -35 3 0 -10 16 -29 35 -19 19 -36 35
-39 35 -3 0 10 -16 29 -35z"/>
<path d="M5806 2771 c-4 -7 -5 -15 -2 -18 9 -9 19 4 14 18 -4 11 -6 11 -12 0z"/>
<path d="M6695 2690 c-3 -5 -2 -10 4 -10 5 0 13 5 16 10 3 6 2 10 -4 10 -5 0
-13 -4 -16 -10z"/>
<path d="M3080 2465 c0 -8 2 -15 4 -15 2 0 6 7 10 15 3 8 1 15 -4 15 -6 0 -10
-7 -10 -15z"/>
<path d="M6950 2346 c0 -2 8 -10 18 -17 15 -13 16 -12 3 4 -13 16 -21 21 -21
13z"/>
<path d="M6730 2336 c0 -2 8 -10 18 -17 15 -13 16 -12 3 4 -13 16 -21 21 -21
13z"/>
<path d="M7100 2312 c0 -12 19 -26 26 -19 2 2 -2 10 -11 17 -9 8 -15 8 -15 2z"/>
<path d="M2688 2293 c7 -3 16 -2 19 1 4 3 -2 6 -13 5 -11 0 -14 -3 -6 -6z"/>
<path d="M4101 2284 c0 -11 3 -14 6 -6 3 7 2 16 -1 19 -3 4 -6 -2 -5 -13z"/>
<path d="M508 2003 c7 -3 16 -2 19 1 4 3 -2 6 -13 5 -11 0 -14 -3 -6 -6z"/>
</g>
</svg>
